<?xml version="1.0" standalone="no"?><!DOCTYPE svg PUBLIC "-//W3C//DTD SVG 1.1//EN" "http://www.w3.org/Graphics/SVG/1.1/DTD/svg11.dtd"><svg t="1768379468675" class="icon" viewBox="0 0 1636 1024" version="1.1" xmlns="http://www.w3.org/2000/svg" p-id="6764" xmlns:xlink="http://www.w3.org/1999/xlink" width="319.53125" height="200"><path d="M700.56065 1023.994673c-4.852576-22.457145-10.765154-44.690571-14.42456-67.398068-0.980103-6.093684-2.178599-12.144756-2.173272-18.360953 0-4.048252-1.95488-6.429263-6.221525-6.360017-5.800719 0.090553-11.068773-3.089455-16.965371-2.647343-3.297195 0.250352-4.394484-2.263825-4.52765-5.028355-0.692464-14.61632-3.062822-29.046208-2.961616-43.811674 0.11186-16.240948 4.026945-31.523099 7.569166-47.028969 2.604731-11.383045 5.284034-22.744784 9.252386-33.749637 0.761711-2.114679-0.394172-3.611467-1.486135-5.241421-3.909759-5.832679-7.649065-11.782544-11.585458-17.599243-8.666455-12.815913-9.097914-26.010019-2.626037-39.907241 3.579507-7.691679 7.681025-15.228885 9.614599-23.607701 2.018799-8.751681 1.427541-16.688386-5.59298-23.522474-6.541123-6.37067-12.997019-12.799933-19.916334-18.787085-19.905681-17.221051-23.639661-38.181408-14.376621-62.29514 4.330564-11.281839 9.044647-22.441165 11.968976-34.255669 2.753877-11.127366 1.555381-21.588901-4.36785-31.294053a118.762928 118.762928 0 0 0-11.164653-15.53783c-17.418137-20.305179-19.436936-42.096493-7.185647-65.613641 2.74855-5.278707 4.911169-10.855707 7.435999-16.251601 7.675699-16.422054 5.411874-31.885311-4.671469-46.437711-5.816699-8.389469-12.118123-16.438034-18.052008-24.75293-9.689171-13.577624-10.189876-27.522787-1.299702-41.723628 3.494281-5.582326 7.041828-11.138019 10.402942-16.805572 5.923232-9.987464 4.916495-19.532816-2.386338-28.385704-5.273381-6.391977-11.628071-12.048876-16.038535-18.968191-11.755911-18.435526-11.99561-38.548946-3.851166-58.039148 4.799309-11.489578 12.032896-14.355314 29.200681-11.212593 11.068773 2.024126 21.871214 5.438507 32.876067 7.840825 11.745257 2.562117 23.154936 0.644524 34.292955-3.520914 10.940934-4.090865 20.981664-10.232489 32.183603-13.764057 16.933412-5.342627 33.744311-6.690269 50.549882 0.308946 7.441326 3.100109 14.983859 5.987152 22.270713 9.417512 16.741652 7.878111 34.223709 7.654392 51.934811 5.252075 26.54801-3.600814 52.462149-10.935607 78.903626-14.6323 28.683996-4.010965 57.224172-2.381011 83.500523 12.74134 15.676323 9.018014 32.577775 13.598931 50.858828 9.832991a153.311562 153.311562 0 0 0 19.596735-5.523734c20.08146-7.009868 40.093674-14.014409 61.927602-13.774709 11.91571 0.133166 22.313325 4.277298 33.094459 8.309569 13.700137 5.124235 26.537357 12.453701 41.089757 15.479237 11.96365 2.482218 22.771417-0.777691 33.339486-5.443833 9.715805-4.287951 18.680552-10.093997 28.353743-14.56838 17.114518-7.926051 34.165116-6.072378 50.949381-0.133167 13.194105 4.666143 25.850219 10.850381 38.751359 16.336828 17.583263 7.473286 35.230445 5.62494 53.069387 0.751057 23.138956-6.328057 45.436301-5.033682 65.970527 8.783641 9.081934 6.114991 11.649378 14.419234 8.687761 24.997956-3.062822 10.935607-7.643739 21.322569-12.64546 31.304706-12.102143 24.124386-7.878111 47.028969 2.982922 69.805713 7.334793 15.383357 6.562429 30.399176-1.038696 45.340421-5.640919 11.084753-13.497724 20.635432-21.088197 30.372543-4.186745 5.36926-8.224343 10.829074-11.873096 16.608486-5.145541 8.13379-5.51308 16.37944-1.528748 24.902076 2.242519 4.804636 4.485037 9.673191 7.350773 14.110289 8.629169 13.343251 7.947358 26.814342 1.550054 40.711565-5.236094 11.377719-11.755911 22.164179-15.180944 34.383508-3.76594 13.439131-2.061412 26.707809 1.954879 39.486437 5.992478 19.074724 7.894091 37.659396-0.420805 56.568994-2.998902 6.839415-5.853985 13.769383-10.15259 19.809801-14.861346 20.853824-18.845678 43.678508-13.51903 68.468724 0.798997 3.728653 0.80965 7.622432 1.512767 11.377719 3.462321 18.568692-4.096192 32.716268-17.567282 44.605344-6.892682 6.088358-7.265547 8.533289-4.255991 17.41281 7.862131 23.181569 15.394011 46.496304 16.730999 71.158681 0.692464 12.720034 0.197086 25.498661 0.356885 38.250654 0.042613 3.297195-1.635281 5.262728-4.383831 6.322731-6.344037 2.428951-12.698727 4.889862-19.19191 6.855395-3.446341 1.044023-5.715493 2.253172-5.656899 6.32273 0.404825 26.255044-2.157292 52.233103-7.265547 77.976789-0.245026 1.219802-0.010653 2.540811 0 3.819207h-6.391977c-2.695284-3.206642-1.683221-6.834088-1.107943-10.360329 3.451667-21.168096 6.43459-42.389459 6.743536-63.877155 0.037287-2.743223 1.400908-7.148361-2.194579-7.776905-5.262728-0.932163-10.850381-2.929656-16.224967-0.511358-1.90694 0.852264-1.71518 3.281215-1.784427 5.161521-0.80965 22.526391-4.346544 44.765144-6.754189 67.131736-0.372865 3.531567-0.474072 7.26022-2.966942 10.237816h-5.113582c-2.407645-7.180321 0.639198-14.152902 0.90553-21.226689 0.170453-4.60755 0.95347-9.236406 1.486135-13.85461 0.452765-3.627447-1.480808-5.065642-4.778003-5.236094-1.6992-0.085226-3.409054-0.042613-5.113581-0.042613-22.78207 0-45.580121 0.458092-68.346211-0.11186-32.119683-0.804324-64.23404-1.363622-96.35905-1.203822-2.317092 0.010653-4.730063 0.202413-6.668962-1.544728 0.628544-4.474384 4.314584-3.201315 6.823435-3.249255 12.235309-0.250352 24.481271-0.053266 36.711253-0.138493 42.799611-0.11186 85.615202-0.01598 128.430793-0.058593 10.370982-0.005327 10.456209-0.010653 11.686664-10.381635 1.603321-13.519031 2.546137-27.107308 3.57418-40.684932 0.431458-5.731472-1.853673-8.554596-7.547859-9.603945a103.885602 103.885602 0 0 1-17.833615-4.991069c-28.348417-10.695908-57.048392-9.955504-86.20646-3.893779-19.170604 3.984332-38.165428 8.986054-57.714223 11.04214-3.488954 0.367539-6.349364 2.370358-9.273693 4.106845-17.812309 10.589375-36.306428 19.708595-56.057636 26.143185-8.533289 2.78051-9.806358 2.626037-15.228885-4.47971-4.927149-6.45057-10.999527-11.857117-15.969288-18.249094-0.633871-1.331662-0.756384-2.689957-0.14382-4.064232 3.499607-2.359705 5.48112 0.79367 7.595799 2.402318 5.459813 4.154785 9.364246 9.838318 13.700137 15.058432 2.423625 2.908349 4.873882 3.515587 8.368163 2.311765 17.918841-6.173584 35.507431-13.066266 51.609886-23.266796 4.820616-3.052169 4.751369-3.435687 0.335578-7.137707-5.347954-4.49569-11.303146-7.473286-18.313013-8.250977-13.039633-1.443521-25.983385-4.144132-39.252064-1.997492-5.816699 0.942817-11.036813 2.908349-15.846775 6.237504-4.037599 2.785837-8.282937 5.209461-13.002346 6.674289-2.673977 0.655178-5.4971 2.871063-7.814192-0.681811a3.286541 3.286541 0 0 1 0.356885-2.929656c8.655802-4.49569 16.874819-9.806358 25.669114-14.030389a21.03493 21.03493 0 0 1 8.629168-2.183925c15.330091-0.303619 30.665508-0.830957 45.809167 2.562117 6.333384 1.422215 12.320535 3.520914 17.423463 7.579819 5.960518 4.740716 12.570888 5.720819 19.873721 4.43177 20.976337-3.718 41.851468-7.910071 62.897051-11.287165 24.081772-3.867146 47.50304-1.944226 70.673956 5.246747 8.746355 2.711263 17.556629 5.252074 26.569317 6.967255 2.519504 0.479398 5.028355 0.90553 7.606452 0.900204 10.807767-0.005327 17.183764-5.523733 18.403567-16.294215 1.022716-9.002034-0.820304-17.828288-2.231866-26.649216-1.709854-10.711888-3.696693-21.322569-4.053578-32.279482-0.511358-15.52185 6.812782-26.803689 17.26899-36.897686 0.612564-0.585931 1.299702-1.097289 1.98684-1.603321 18.563366-13.625564 25.189715-31.629632 21.120156-54.305169-2.056086-11.436312-4.053579-22.968503-2.423624-34.88954 1.7791-12.986366 6.32273-24.694337 13.076919-35.69919 7.819518-12.74134 15.372704-25.472027 17.434116-40.791465 0.996083-7.42002-0.181106-14.429887-1.262415-21.551615a175.140163 175.140163 0 0 0-4.208051-19.351709c-5.427854-19.889701-3.057496-38.788646 6.40263-56.973819 2.855083-5.475793 5.555693-11.031487 8.26163-16.592507 5.337301-10.967567 5.124235-21.770007-0.980104-32.380689-2.865736-4.991069-5.827352-9.934197-8.10183-15.223557-4.362524-10.141936-4.59157-20.219953 0.724424-30.170131 3.73398-6.993888 8.597209-13.194105 13.359231-19.468895 5.923232-7.808865 12.032896-15.47391 17.402157-23.687601 8.586555-13.135512 11.159326-26.963489 5.108255-41.915387-1.512768-3.74996-2.535484-7.734292-4.357198-11.324453-11.430985-22.494431-9.438819-44.813084 0.447439-67.158368 4.053579-9.15118 8.22967-18.265074 11.148672-27.874346 3.062822-10.099323 1.198496-16.091801-8.320223-20.667391-16.017228-7.702332-32.764207-11.952996-50.725662-7.377407-9.076607 2.311765-18.169194 4.49569-27.442887 6.045745-12.453701 2.077392-24.113732-0.223719-35.640596-4.554283-13.172799-4.948455-25.557254-11.649378-38.730053-16.656426-19.28779-7.34012-37.137385-4.751369-54.496928 5.358607-5.699513 3.323828-11.335105 6.764842-17.290297 9.646558-22.031013 10.669275-43.401522 7.446653-64.516352-2.849756a291.527406 291.527406 0 0 0-23.991219-10.482842c-15.287478-5.822025-30.665508-5.827352-46.448365-2.088046-17.039945 4.042925-33.296872 10.514802-50.081138 15.346071-17.764369 5.108255-34.532654 2.82845-51.151793-3.845839-4.740716-1.901613-9.603945-3.70202-13.982449-6.269464-14.749486-8.655802-30.921187-11.974303-47.636207-12.98104-14.983859-0.900203-29.690732 1.709854-44.328359 4.660817-20.667391 4.170765-41.32413 8.330876-62.11936 11.89973-24.262878 4.154785-46.890476 0.527338-68.719077-10.557415-14.5524-7.38806-29.914451-11.207266-46.368465-7.329467-8.964747 2.109352-17.418137 5.587653-25.727706 9.502739-9.646558 4.548957-19.522162 8.416103-30.036964 10.637315-12.74134 2.695284-24.997956-0.202413-37.291858-2.673977-7.515899-1.512768-14.845366-3.877799-22.387898-5.294688-10.323042-1.9389-16.635119 1.629954-18.930905 12.01159-4.410464 19.916334-2.556791 38.59156 13.002347 53.825771 4.746043 4.644836 8.895501 9.747765 11.942343 15.697629 4.895189 9.561332 5.054988 19.133317 0.388845 28.859775-2.78051 5.790066-6.157604 11.207266-9.817011 16.44336-8.895501 12.736014-8.970074 25.131122 0.537991 37.707336 8.075197 10.679928 17.039945 20.800558 22.446492 33.296873 4.815289 8.661128 4.55961 18.083968 4.160112 27.522786-1.123923 11.750584-6.818109 21.849907-11.755911 32.210236-4.144132 8.698415-7.851478 17.439443-7.489266 27.426907 0.239699 6.589063 1.928246 12.592194 5.374587 18.137234 3.377094 5.43318 7.004541 10.711888 11.217919 15.532503 17.375523 19.863068 19.133317 41.862121 9.332286 65.597662a330.481177 330.481177 0 0 0-9.326959 25.844892c-5.4172 16.976025-2.929656 31.858677 10.9143 44.125946 5.092275 4.516997 9.619925 9.641232 14.978532 13.90255 5.917905 4.714083 10.323042 10.765154 13.83863 17.402156 5.438507 10.291083 4.085538 20.603472-0.522011 30.750735-3.520914 7.755598-7.345447 15.372704-10.179223 23.415942-1.214476 5.289361-1.358295 10.562742 0.159799 15.825469 5.188154 15.431297 15.623056 27.725199 24.555844 40.897998 5.140215 7.574492 10.344349 15.095718 15.074412 22.941869 5.518407 9.156507 6.850068 18.616632 2.727243 28.689323-1.693874 4.133478-3.291868 8.314896-5.092275 12.400435-3.76594 8.559922-2.050759 16.155721 3.883126 23.101669 9.689171 11.340432 21.120156 16.187681 36.306428 11.990283 17.636529-4.879209 34.80964-11.260532 52.755115-15.186272 18.973518-4.138805 37.195978-2.253172 55.232005 4.128152 0.798997 0.287639 1.613974 0.564625 2.386338 0.910857 24.582477 11.020833 48.882642 10.647968 74.407936 1.587341 32.599081-11.574805 65.240776-10.163243 96.364376 6.658309 4.868556 2.631364 9.870277 5.001722 15.276825 6.397303 1.859 0.479398 3.680713 1.155882 4.644836 3.062822-3.137395 5.054988-7.446653 2.215885-11.415005 1.709854-7.984644-1.230456-14.264761-6.407957-21.471715-9.470779-26.409517-11.217919-52.856321-11.153999-79.585437-1.66724-4.160112 1.475481-8.400123 2.769857-13.769383 4.809962 22.76609 12.602847 42.373479 28.561483 66.955956 35.640597 7.436 2.141312 13.124859 1.582014 18.067987-4.730063 2.471564-3.158702 5.534387-5.885945 8.575903-8.549269 2.546137-2.226539 5.028355-4.660816 8.751681-4.815289 3.435687 1.075983 3.387748 3.094782 1.528748 5.60896-6.248157 4.793983-12.592194 9.518719-17.780349 15.479237-4.650163 5.353281-9.859624 6.125644-16.603159 4.522323-15.362051-3.664733-29.088821-10.674601-42.352173-18.898944a3751.200795 3751.200795 0 0 1-29.770632-18.611306c-2.78051-1.757794-5.640919-3.142722-8.996707-2.327745-18.39824 4.47971-35.374265-0.942817-52.20647-7.420019-1.587341-0.612564-3.217295-1.139903-4.772676-1.800407-20.773924-8.799621-41.766241-8.458716-63.051524-1.901613-13.625564 4.197398-27.149921 8.714395-40.897998 12.506968-4.112172 1.129249-8.240323 2.482218-12.480334 2.514177-4.634183 0.037287-5.822025 2.141312-5.550367 6.322731 1.038696 15.926675 2.801816 31.762798 5.635593 47.47108 0.415478 2.311765 0.804324 4.612877 0.809651 6.967255a12.091489 12.091489 0 0 0 0.985429 6.003131c3.110762 12.618827 4.746043 25.525294 7.425347 38.234674 0.452765 2.141312 0.292966 4.250665-1.289049 6.008459h-5.113581c-1.374275-1.475481-1.773774-3.339808-2.135986-5.241421-4.799309-25.093835-9.460126-50.219631-12.416415-75.611759-0.553971-4.767349-2.247845-6.972581-7.079114-6.743535-2.972269 0.138493-5.960518-0.042613-8.938114 0.026633-6.631676 0.149146-7.537206 1.102616-6.578409 7.590473 2.146639 14.53642 5.140215 28.929021 8.224343 43.294989 2.104026 9.785051 4.51167 19.500856 6.924641 29.211333 0.607238 2.450258 1.528748 4.937802 0.266333 7.473287-2.583424-0.042613-5.140215-0.042613-7.697006-0.042614z" fill="#060405" p-id="6765"></path><path d="M735.077325 1023.994673l-7.984644-44.72253c-0.404825-1.411562-0.165126-2.604731 1.422214-2.956289 1.667241-0.367539 3.387748-0.181106 5.092275-0.181106 48.057012 0.010653 96.11935-0.037287 144.181689 0.079899 3.334481 0.005327 7.393386-1.448848 9.667865 2.727244-6.077705 2.221212-12.395108 0.122513-19.793822 1.321008 46.874496-2.78051 92.534517-1.129249 138.178557-1.518094 3.909759-0.037287 8.501329-0.836284 9.481433 4.953782-0.623218 8.815601-4.70343 16.715019-6.951275 25.104488-1.368948 5.113581-3.398401 9.934197-1.00141 15.196925L735.077325 1023.994673z" fill="#DC932A" p-id="6766"></path><path d="M1341.105966 989.824231c-0.431458 11.489578-2.082719 22.840664-3.904433 34.170442h-144.458674c-1.022716-0.607238-1.997493-1.262415-2.482217-2.423624-1.629954-6.503836-0.692464-13.130186-0.793671-19.692615-0.074573-4.548957-1.800407-6.535796-6.43459-6.53047-25.104489 0.037287-50.214304 0.021307-75.324119 0.010654-4.740716 0-6.30675 2.247845-6.269464 6.684942 0.04794 6.589063 0.175779 13.188779 0.021307 19.783168a4.298604 4.298604 0 0 1-0.767037 2.167945h-15.340745a3.100109 3.100109 0 0 1 0.074573-4.112171c3.760613-4.351871 1.981513-8.602535 0.186433-13.007673-3.036189-7.45198-6.471876-14.754813-9.193793-22.323979-1.71518-4.772676-0.522011-6.32273 4.548957-6.146951 23.106996 0.783017 46.213992 0.106533 69.320987 0.362212 2.322418 0.026633 4.70343-0.159799 6.722229 1.390255 1.667241 2.434278 4.234685 1.651261 6.455897 1.624628 39.827342-0.447438 79.633377 0.88955 119.460718 0.703117 17.466076-0.0799 34.93748-0.026633 52.408883-0.005327 6.759515-0.005327 6.759515 0.026633 5.768759 7.345447z" fill="#DB922A" p-id="6767"></path><path d="M1081.522464 1023.994673h-70.311744c-5.470467-2.540811-6.099011-6.194891-4.181418-11.889076 6.099011-18.094621 12.704054-35.976176 20.576838-53.373006 1.289049-2.84443 2.263825-6.040418 5.4971-7.521226 8.314896-1.534074 16.629793-2.897696 24.971323-0.12784 2.705937 0.868244 3.877799 3.153375 4.937802 5.48112 7.798212 17.135824 15.793509 34.175769 23.373328 51.402147 3.148049 7.164341 2.514178 9.007361-4.863229 16.027881z" fill="#FD0000" p-id="6768"></path><path d="M708.231023 1023.994673c-7.670372-27.464193-13.865263-55.232006-17.737736-83.511176-0.665831-4.836596 0.197086-6.940621 5.747452-6.173584 5.44916 0.756384 11.04214 0.511358 16.5712 0.591258 2.396991 0.042613 3.867146 0.452765 4.128152 3.435687 2.471564 27.799772 8.394796 55.061553 13.055612 82.52042 0.175779 1.012063-0.010653 2.088046-0.03196 3.137395h-21.73272zM1342.315115 1023.994673c2.354378-21.785987 4.751369-43.571975 7.031174-65.363288 0.532665-5.076295 0.862917-10.189876 0.900204-15.292805 0.026633-3.78192 1.139903-5.523733 5.220114-4.836596 2.711263 0.458092 5.51308 0.415478 8.282937 0.495379 10.248469 0.271659 10.15259 0.255679 10.248469 10.243142 0.202413 22.249406-3.174682 44.120619-6.738209 65.986507-0.474072 2.887043-1.603321 5.763432-0.660504 8.772988L1342.315115 1023.994673z" fill="#FDFD33" p-id="6769"></path><path d="M1081.522464 1023.994673c0.191759-0.378192 0.308946-0.836284 0.591258-1.123922 8.24565-8.26163 2.535484-15.734916-1.251762-23.362675-7.739618-15.575117-13.85461-31.917271-22.249406-47.178115-4.000312-3.068149 0.964123-4.138805 1.368948-6.237504 4.62353-5.438507 9.081934-10.988873 12.986366-16.997332 2.695284-4.144132 2.535484-7.265547-1.906939-9.934197-1.74714-1.044023-3.696693-2.151966-3.899106-4.612876l0.553971-0.708444c2.407645 1.720507 4.080212-1.134576 6.232178-1.00141 1.576688 3.265235 6.445243 4.090865 6.375996 8.575902l-0.042613 4.266644c0.729751 2.535484-0.596584 4.532977-1.725834 6.573083-2.572771 4.682123-5.475793 9.177813-9.140526 13.039633-3.989659 4.213378-3.973679 8.224343-1.315682 13.242045 10.88234 20.534225 5.342627 17.31693 27.954245 17.450096 32.556468 0.186433 65.12359-0.010653 97.685384 0.122513 3.339808 0.010653 7.430673-1.352968 9.603945 2.934983-12.767974 0.090553-25.535947 0.143819-38.30392 0.292966-2.279805 0.026633-4.714083-0.681811-6.786149 0.948143-0.330252 0.553971-0.79367 0.687137-1.384928 0.452765h-80.011569c3.153375 7.675699 5.790066 16.006575 9.886257 23.527801 3.994985 7.318813 2.775183 13.412498-1.379601 19.724575l-3.840513 0.005326z" fill="#200906" p-id="6770"></path><path d="M1032.842234 952.351267c-10.163243 19.985581-17.519343 41.095084-25.237654 62.082074-1.896286 5.166848 2.482218 6.38665 3.60614 9.561332h-3.835186c-3.275888-2.66865-4.154785-5.550366-2.578097-9.891584 3.382421-9.332286 6.051071-18.930904 9.00736-28.417663 1.102616-2.114679 0.671158-4.532977 1.283722-6.743535 0.330252-1.155882 0.80965-2.242519 1.299702-3.334482 3.062822-6.471876 5.763432-13.108879 8.783641-19.596735 1.84302-3.957699 1.384928-7.206954-1.7791-10.280429-3.217295-3.116089-5.204134-7.143034-7.286853-11.031487-1.065329-1.981513-2.263825-4.138805-0.884224-6.541123 1.837693-2.343725 0.926837-3.536894-1.68322-4.005638-0.0799-4.112172 3.616794-5.204134 5.944538-7.366753 2.279805-2.114679 4.719409-4.058905 6.802129-6.375997 3.941719 0.213066 7.904745 2.647344 11.814503-0.122513 0.862917-1.04935 2.082719-1.656587 3.329155-1.523421 7.547859 0.777691 15.143658 0.426132 22.691517 1.028043 1.273069 0.106533 2.439604 0.644524 3.329155 1.640607l0.261006 2.407645-0.335579 0.362212c-1.550054 3.110762-4.532977 2.66865-7.233587 2.897696-5.784739 0.495378-11.452292-0.84161-17.157131-1.363622-7.718312-0.708444-14.307375 0.814977-19.591409 6.684942-3.957699 2.040106-4.628856 4.836596-2.546137 8.810275 2.460911 4.698103 5.347954 9.028667 8.943441 12.906466 0.729751 0.95347 1.464828 1.89096 2.365031 2.695284 1.725834 1.486135 3.600814 0.719097 5.470467 0.447438 2.524831-0.362212 5.039008-0.527338 7.222933 1.84302-3.67006 3.121415-8.176404 1.965533-12.006263 3.227948z" fill="#200906" p-id="6771"></path><path d="M1100.698394 1023.994673a1.560708 1.560708 0 0 1-0.127839-1.177189c2.306438-2.503524 5.406547-2.226539 8.330876-2.237192 24.843483-0.085226 49.686966-0.053266 74.530449-0.031959 2.998902 0 5.949865 0.181106 8.602535 1.821713l0.708444 1.624627h-92.044465z" fill="#CFCFCF" p-id="6772"></path><path d="M1067.449462 911.431963c-9.811684 0.356885-19.580755-0.426132-29.349827-1.145229-11.585458-1.885633-21.14679-8.719722-31.714858-13.066266-26.191125-10.765154-52.669888-10.179223-79.420311-2.801816a164.327069 164.327069 0 0 0-11.521538 3.771266c-20.27322 7.22826-40.349353 7.21228-60.425486-1.006736a156.129358 156.129358 0 0 0-28.060778-8.48535c-15.64969-3.185335-30.942494-1.171862-46.032886 3.142722-14.515114 4.149458-28.891735 8.778315-43.433482 12.80526-17.253011 4.772676-33.461998-2.556791-41.798201-18.249093-2.881716-5.422527-3.547547-10.834401-1.363622-16.5712 0.532665-1.390255 0.92151-2.871063 1.677894-4.128152 10.669275-17.769695 7.095094-33.728331-5.049662-49.45792-8.954094-11.596111-16.741652-24.097752-24.795543-36.365021-3.366441-5.118908-6.573083-10.434902-7.840825-16.603159a53.479539 53.479539 0 0 1-0.042613-16.842859c1.214476-7.052481 5.198808-12.959733 8.139117-19.27181 9.332286-20.06548 7.302833-32.215563-8.506655-47.673493-5.928558-5.800719-12.192696-11.244552-18.211807-16.960045-12.810587-12.144756-16.901452-26.718463-11.409679-43.587955a616.910982 616.910982 0 0 1 11.303146-31.832044c8.282937-21.359856 5.550366-40.775485-9.188467-58.502567a176.993836 176.993836 0 0 1-11.713297-15.900042c-7.238914-11.01018-8.543942-22.84599-4.293278-35.374264 2.269152-6.679616 5.422527-12.938426 8.517309-19.223871 3.963026-8.053891 7.089768-16.36346 8.991381-25.136448 0.495378-0.719097 1.113269-1.438195 2.024126-1.342315 12.75732 1.315682 20.150707-7.206954 26.782382-15.69763 6.993888-8.959421 11.510885-19.442263 11.260532-31.224806-0.234372-10.988873-8.703742-15.55381-18.004067-9.790378-9.891584 6.125644-16.880145 14.786773-21.530309 25.418761-0.95347 2.178599-1.145229 5.268054-4.719409 5.108255-5.54504-10.892994-13.428478-20.166687-20.592819-29.946411-12.959733-17.700449-13.114206-25.461374-1.310355-44.030067 2.737897-4.309258 5.534387-8.602535 7.915398-13.103552 5.912578-11.175306 5.150868-22.062973-1.832367-32.604408a77.449451 77.449451 0 0 0-10.669274-12.688074c-16.230294-15.772203-16.544566-35.134565-12.01159-55.173412 2.556791-11.324452 8.496002-14.61632 19.847088-12.432395 10.232489 1.970859 20.353119 4.506344 30.511036 6.855395 17.47673 4.037599 34.245015 1.885633 50.491289-5.486447 7.942031-3.60614 15.894715-7.21228 24.001873-10.418922 15.718936-6.210871 31.576365-6.168258 47.401834-0.207739 1.592668 0.596584 3.259908 1.102616 4.71941 1.949553 29.712039 17.30095 61.171217 16.986678 93.514619 9.806358 19.11201-4.240011 38.271961-8.517309 57.613017-11.393699 26.084592-3.877799 51.870891-2.924329 75.846131 10.237816 3.536894 1.9389 7.32414 3.419708 10.967567 5.172175 20.374426 9.817011 41.121717 11.095406 62.593432 3.568853 13.444458-4.708756 26.963489-9.236406 40.770158-12.88516 19.809801-5.230768 38.799299-3.456994 57.288092 5.076295 6.770169 3.116089 13.550991 6.189564 20.299852 9.348266 22.76609 10.647968 44.908963 9.651885 66.476559-3.387747 4.005639-2.423625 8.219017-4.49569 12.272595-6.844742 16.965372-9.854297 34.495368-10.802441 52.829688-4.069559 11.617418 4.266644 22.734131 9.630578 33.930743 14.781447 16.826879 7.739618 33.96803 8.938114 51.705765 4.245337 3.696693-0.980103 7.45198-1.79508 11.09008-2.961615 18.099947-5.800719 35.464818-2.290458 52.313003 4.623529 14.451194 5.928558 17.514016 13.172799 12.203348 27.682586-4.021619 10.983547-8.698415 21.727394-13.124858 32.556468-7.558512 18.526079-7.26022 36.887032 0.87357 55.189393 2.333072 5.241421 4.405137 10.605355 6.37067 16.001248 4.809962 13.194105 3.68604 25.839566-3.403728 38.069549-7.515899 12.959733-17.061251 24.449311-26.265698 36.135975-12.464355 15.820142-14.5524 31.826718-2.807143 48.658923 11.265859 16.155721 10.003444 32.007824 0.479399 48.445857-8.852888 15.266171-15.425971 31.357973-13.300639 49.697619 1.086636 9.348266 3.456994 18.408893 5.768759 27.474846 5.502427 21.631515 2.333072 41.696995-9.763744 60.521367-6.674289 10.376309-12.997019 20.992317-16.347481 33.089133-4.298604 15.47391-2.466238 30.926514 0.442112 46.224645 4.085538 21.455735-1.262415 39.118898-18.861658 52.712501-3.680713 2.839103-6.898008 6.333384-10.10465 9.737112-8.815601 9.337613-12.677421 20.374426-11.649377 33.280892 1.123923 14.046369 4.548957 27.730526 6.125644 41.702321 0.575278 5.102928 0.948143 10.211183 0.298292 15.292805-1.427541 11.185959-7.547859 16.581853-18.845678 16.688386-8.18173 0.074573-15.995922-2.130659-23.794133-4.303931-12.911793-3.584834-25.685093-7.739618-39.012365-9.641232-22.110913-3.158702-43.731774 0.916183-65.352635 4.618203-14.057022 2.412971-28.044798 5.236094-42.064534 7.846152-5.582326 1.038696-11.436312 1.512768-15.900042-2.439605-10.259123-9.092587-22.81403-10.983547-35.592657-12.144756-8.048564-0.735077-16.166374-0.830957-24.252225-0.916183-7.153687-0.074573-14.019736 1.523421-20.054827 5.518407-6.375997 4.234685-12.906466 8.096504-20.315833 10.264449z" fill="#FEFE33" p-id="6773"></path><path d="M1015.227012 928.162962a47.535 47.535 0 0 0 11.425658 18.930905c2.317092 2.365031 2.551464 4.309258 1.14523 7.222933-3.59016 7.467959-6.855395 15.090392-10.24847 22.648905-2.727243 1.486135-5.688859 1.566034-8.693088 1.566034-38.112161-0.010653-76.250956 0.926837-114.336484-0.234373-53.383659-1.624627-106.756665-1.438195-160.145651-1.629954-2.908349-0.01598-6.083031 0.559298-8.14977-2.423624-2.988249-19.122664-5.790066-38.255981-6.738209-57.618344-0.202413-4.165438-0.026633-5.667553 5.044335-5.4971 10.115303 0.340905 19.495529-3.877799 29.062188-6.674289 11.617418-3.398401 23.176242-7.020521 34.830946-10.280429 17.36487-4.847249 34.516674-3.60614 51.407473 2.412971 8.405449 2.993576 16.778939 6.072378 25.221675 8.943441 11.558825 3.925739 23.357348 4.586243 35.187832 1.550054 3.254581-0.830957 5.60896-0.165126 8.304243 1.528748 13.114206 8.282937 26.430824 16.251601 39.507743 24.582477 11.654704 7.42002 24.475944 11.670684 37.717989 15.037125 3.73398 0.948143 6.349364 0.282312 9.049974-2.562117 4.820616-5.086948 9.99279-9.859624 15.191598-14.56838 1.438195-1.299702 2.562117-3.616794 5.214788-2.934983zM1203.337561 979.05375c-13.588277-1.347642-27.219168-0.623218-40.828752-0.77769-27.261781-0.308946-54.534215-0.426132-81.801322-0.394172-3.931066 0.005327-6.056398-1.012063-7.617106-4.788656-2.66865-6.477203-5.869965-12.746667-9.172486-18.930905-1.464828-2.74855-1.012063-4.46373 1.022716-6.605042 6.194891-6.509163 10.919627-14.094309 15.335418-21.865887 7.201627 4.825942 12.490988 11.564151 17.146477 18.589999 3.462321 5.220114 6.679616 5.289361 12.091489 3.377094 19.708595-6.972581 38.916485-14.989185 56.371909-26.574643 5.486447-3.643427 11.345759-3.925739 17.359543-5.001722 15.063759-2.705937 29.989024-6.178911 45.04213-8.970074 11.494905-2.130659 23.064383-3.941719 34.660493-5.438507 16.55522-2.135986 32.609735 0.735077 48.477817 5.44916 10.9942 3.265235 21.855234 7.121727 33.195666 9.060627 2.721917 0.468745 3.57418 1.539401 3.334481 4.149459-1.667241 18.435526-3.382421 36.871052-4.836595 55.327885-0.378192 4.825942-3.5582 3.744633-6.333384 3.73398-41.728955-0.186433-83.452583-0.410152-125.176211-0.596585-2.76453-0.026633-5.518407 0.159799-8.272283 0.255679z" fill="#FEFEFE" p-id="6774"></path><path d="M675.786414 804.813791c7.814192 10.456209 15.287478 19.676635 20.752618 30.292643 2.689957 5.214788 2.418298 10.743848 0.916183 16.198334-0.900203 3.270561-2.173272 6.45057-3.430361 9.614599-7.526553 19.005477-2.056086 35.320998 15.974615 45.148662 4.724736 2.572771 6.471876 5.454487 5.880619 10.370982-0.021307 0.207739 0 0.426132 0.005327 0.639198 0.255679 14.419234 0.261006 14.334008-14.483154 13.247372-11.734604-0.862917-23.085689-3.67006-34.543308-6.077705-3.979006-0.830957-4.080212-3.270561-4.57559-6.381323-5.699513-35.597984 0.207739-69.965512 10.765154-103.858969 0.82563-2.642017 1.576688-5.294687 2.737897-9.193793z" fill="#FEFEFD" p-id="6775"></path><path d="M1026.290458 910.414573c1.363622 1.624627 0.186433 2.466238-0.964123 3.446341-3.957699 3.398401-7.867458 6.855395-11.78787 10.296409-7.020521 4.873882-13.114206 10.834401-18.930905 17.002658-3.297195 3.499607-6.178911 4.431771-11.015506 3.158702-13.289985-3.494281-25.727706-8.666455-37.387738-15.932002-12.251289-7.638412-24.683684-14.983859-37.55819-22.776743 37.227938-16.693713 73.518386-18.898945 109.558482 1.241108 2.572771 1.438195 4.953782 3.387748 8.08585 3.563527z" fill="#FEFEFE" p-id="6776"></path><path d="M1384.161256 807.029676c11.761237 37.057485 21.546288 73.545019 18.504773 112.173865-0.207739 2.626037-1.038696 4.154785-3.217295 5.635593-13.716117 9.316306-28.742589 12.251289-45.01017 9.880931-2.263825-0.330252-3.59016-0.862917-3.201315-3.467647 0.223719-1.459501 0.330252-2.998902 0.133166-4.458404-0.916183-6.802129 0.92151-10.035403 8.831581-10.429576 9.065954-0.452765 14.946572-7.377406 16.693713-16.800245 2.594077-13.993102-1.118596-27.51746-3.286541-41.143024-1.209149-7.569166-2.540811-15.106372-2.945636-22.78207-0.601911-11.606764 4.644836-20.374426 13.497724-28.609423z" fill="#FDFDFD" p-id="6777"></path><path d="M1080.318642 921.4141c-1.145229-3.59016-7.489266-3.313175-6.375997-8.575902 4.772676-0.836284 8.543942-3.707347 12.336515-6.381324 7.041828-4.953782 14.818733-7.185647 23.383982-7.238913 11.100733-0.074573 22.089606 1.107943 33.121092 2.215885 10.727868 1.075983 17.972108 7.904745 26.212432 14.110289-19.591409 13.135512-40.711565 22.169506-62.742579 29.339173-3.148049 1.022716-4.106845-0.719097-5.54504-2.551464-6.040418-7.702332-12.288575-15.212905-20.390405-20.917744z" fill="#FEFEFE" p-id="6778"></path><path d="M627.729402 405.432431c3.313175-2.221212 3.116089-6.296097 4.767349-9.396206 5.118908-9.630578 11.85179-17.519343 21.253323-23.043076 10.323042-6.067051 20.19332-0.639198 19.996234 11.287166-0.308946 18.898945-9.433492 33.403405-23.794133 44.892983-5.225441 4.181418-11.505558 5.012375-18.046681 3.792573 0.591258-9.486759-0.559298-18.696532-4.176092-27.53344z" fill="#A2B20C" p-id="6779"></path><path d="M726.224437 974.243788c2.173272 2.008146 4.868556 1.171862 7.32414 1.182515 94.665175 0.548645 189.330351 1.038696 283.995526 1.539402l-1.305028 2.354378c-2.63669 1.379602-5.438507 0.495378-8.144444 0.500704-37.856482 0.074573-75.723618 0.069246-113.585426 0.01598-2.279805 0-4.682123 0.676484-6.850069-0.665831-1.661914-0.245026-3.318501-0.692464-4.985742-0.703117-50.480636-0.292966-100.955946-0.548645-151.431255-0.77769-1.544728-0.010653-3.552874-0.974776-4.144132 1.592667-1.352968-1.496788-0.996083-3.286541-0.87357-5.039008z" fill="#432918" p-id="6780"></path><path d="M1156.862563 980.742297l1.384928-0.452765c52.531395 0.500705 105.062791 1.00141 157.594187 1.491462 6.381323 0.06392 12.762647 0.11186 19.14397 0.138492 7.963338 0.037287 7.963338 0.026633 6.125645 7.899418 0.671158-5.156195-1.326335-6.828762-6.727556-6.812781-57.682263 0.175779-115.3592 0.0799-173.036137 0.058593-1.704527 0-3.60614 0.474072-5.060315-0.122513-1.773774-0.735077 0.495378-1.390255 0.575278-2.199906z" fill="#CD9953" p-id="6781"></path><path d="M658.283051 746.423084l0.042613 16.842858c-2.412971-5.60896-2.247845-11.223246-0.042613-16.842858z" fill="#DAD79B" p-id="6782"></path><path d="M986.761409 1020.883911c-30.612242 0.090553-61.22981 0.12784-91.842053 0.314273-3.54222 0.021307-4.969762-1.102616-4.841922-4.746043 0.207739-5.944538 0.410152-11.93169-0.06392-17.854922-0.463418-5.736799 1.251762-7.638412 7.286854-7.569166 29.765305 0.319599 59.535937 0.154473 89.301241 0.1598 1.667241 9.896911 1.645934 19.793821 0.1598 29.696058z" fill="#040204" p-id="6783"></path><path d="M809.906066 990.783028c12.75732-0.005327 25.51464 0.12784 38.266634-0.090553 4.026945-0.069246 5.774086 0.87357 5.539713 5.268054-0.340905 6.567756-0.255679 13.178125-0.058593 19.761861 0.11186 3.70202-0.900203 5.331974-4.975089 5.305341-25.935446-0.149146-51.870891-0.154473-77.80101-0.037287-4.314584 0.021307-5.358607-1.752467-5.182828-5.704839a178.282885 178.282885 0 0 0 0-18.483466c-0.276986-4.650163 1.00141-6.285444 5.949865-6.141624 12.746667 0.372865 25.509314 0.12784 38.261308 0.122513z" fill="#030203" p-id="6784"></path><path d="M887.659136 979.170936l128.585266 0.149147c-0.138493 2.375685-1.219802 4.399811-2.434278 6.360016 0.703117-5.838005-3.323828-5.161521-6.993888-5.161521-45.809167-0.005327-91.613007-0.04794-137.4275-0.074573-2.088046-0.005327-4.176091 0-6.27479-1.278395l24.54519 0.005326z" fill="#CAA06F" p-id="6785"></path><path d="M986.761409 1020.883911l-0.1598-29.690732c3.510261 3.441014 1.92292 8.053891 1.757794 11.787871-0.276986 5.933885 2.73257 12.331188-1.597994 17.902861z" fill="#C2A985" p-id="6786"></path><path d="M1265.685967 1021.134264c-14.243455 0-28.48691-0.154473-42.725038 0.095879-4.485037 0.085226-5.981825-1.336988-5.763432-5.790065 0.324925-6.573083 0.207739-13.178125 0.042613-19.761862-0.085226-3.270561 1.081309-4.532977 4.399811-4.52765 29.333847 0.074573 58.667693 0.074573 87.996213 0 3.281215-0.010653 4.49569 1.139903 4.405137 4.463731a355.063654 355.063654 0 0 0 0.010653 21.03493c0.122513 3.861819-1.651261 4.55961-5.007048 4.538303-14.451194-0.12784-28.902388-0.058593-43.358909-0.053266z" fill="#020203" p-id="6787"></path><path d="M1192.034415 1022.375373l-84.480626 0.335578c-2.327745 0.010653-4.65549 0.074573-6.983234 0.11186-1.960206-8.996707-0.537991-18.115927-0.90553-27.176554-0.11186-2.817796 2.215885-2.711263 4.106845-2.705937 28.092738 0.090553 56.190802 0.261006 84.288866 0.255679 3.877799 0 3.904432 2.173272 3.899106 4.916495-0.010653 8.085851 0.042613 16.171701 0.074573 24.262879z" fill="#010101" p-id="6788"></path><path d="M1032.842234 952.351267c2.940309-2.327745 6.913988-1.193169 10.237817-3.233274-2.231865-0.761711-4.261318-0.559298-6.285444 0.154472-2.63669 0.942817-4.969762 0.884223-6.551776-1.853673a4.708756 4.708756 0 0 1 3.835186-1.896286c8.932787 0.069246 17.977435-1.981513 26.745096 1.342315 0.612564 2.365031-4.240011 2.530157-2.210559 5.46514-8.591882-1.523421-17.178437-0.660504-25.77032 0.021306z" fill="#641411" p-id="6789"></path><path d="M1060.817786 946.864821l-30.574955 0.553971-1.107943-2.125332c-1.95488-4.857902-6.125644-8.346856-8.096504-13.220739-1.475481-3.664733-2.269152-7.143034 0.846937-10.370982 7.409366-10.9143 18.30236-7.792885 28.550829-6.993888 5.678206 0.436785 11.340432 1.289049 16.938739-0.495378 0.12784 0.170453 0.223719 0.378192 0.383518 0.506031 11.068773 8.868868 10.97822 8.799621 2.81247 20.656739a73.20944 73.20944 0 0 1-9.753091 11.489578z" fill="#FC0101" p-id="6790"></path><path d="M1021.890648 921.696412c-1.784427 6.562429 0.585931 12.022243 4.852575 16.741653 1.87498 2.082719 2.839103 4.122825 2.386338 6.850068-5.220114-3.947046-7.563839-9.859624-10.466862-15.388684-2.093372-4.000312-1.315682-6.828762 3.227949-8.203037z" fill="#C63030" p-id="6791"></path><path d="M1053.525606 617.704652c21.210709-17.162458 29.802592-40.2588 30.910534-66.662991 0.639198-15.122352-8.629169-25.850219-23.629007-28.433643-5.491773-0.948143-10.999527-1.139903-16.533913-0.90553-16.166374 0.671158-26.952835 11.921037-26.57997 28.124698 0.271659 11.77189 3.6381 23.043076 6.41861 34.383508-0.399499 0.410152-0.820304 0.431458-1.262416 0.069246l-4.058905-9.934197c-31.166213 31.714858-68.846916 46.096806-112.685223 46.198012-44.546751 0.09588-79.830463-19.197237-110.064513-50.272897-1.321009 2.711263-2.311765 4.793983-3.366441 6.844742-0.154473 0.298292-0.644524 0.420805-1.294375 0.814977 0.767037-7.121727 2.221212-14.009082 0.980103-21.002971-3.425034-19.282463-19.729902-35.576677-39.992468-37.606129-21.397142-2.135986-41.089757 2.934983-56.632914 19.11201-14.76014 15.367377-14.009082 36.50884 1.741814 50.944055 2.503524 2.301112 5.049662 4.548957 7.723638 6.956601-7.063134-0.783017-16.693713-8.533289-20.283873-16.145068-9.241733-19.596735-4.255991-37.297184 14.69622-52.15853 16.837532-13.204759 41.446642-17.455423 66.146306-11.164653-0.404825-7.068461-0.735077-13.955816-1.198495-20.832517-2.524831-37.488944 10.301736-69.358274 35.613963-96.508196 3.217295-3.446341 3.366441-5.076295-0.314272-8.282936-14.765466-12.874506-29.195354-26.121878-43.753081-39.236084-1.262415-1.139903-2.551464-2.253172-3.803226-3.409054-2.817796-2.599404-5.43318-5.534387-2.040106-9.204447 3.302521-3.584834 6.487856-1.645934 9.32696 1.155883 5.912578 5.832679 11.85179 11.638724 17.775022 17.460749 9.566659 9.406859 19.197237 18.749798 28.652035 28.268518 2.423625 2.439604 3.776593 3.233275 7.095094 0.633871 21.242669-16.645773 45.510874-25.557254 72.49567-26.398864 5.795392-0.181106 7.483939-1.725834 7.185647-7.590473-0.894877-17.42879-1.155882-34.900193-1.661914-52.350289 0.037287-4.900515 3.302521-4.916495 6.876702-4.618203 3.632773 0.298292 5.363934 2.338398 5.108255 5.806045-0.298292 4.101518 1.129249 8.320223-0.820304 12.299229-0.607238 14.243455-1.177189 28.492236-1.853673 42.730364-0.133166 2.903023 1.219802 3.54222 3.819206 3.65408 27.554746 1.209149 53.197226 8.906154 76.76764 23.224182 3.318501 2.018799 4.101518-0.271659 5.395894-1.997492 10.365656-13.780037 20.683371-27.602686 31.017067-41.409356l3.446341-4.596897c2.327745-3.068149 5.262728-4.879209 8.687762-2.162619 3.456994 2.737897 2.269152 5.917905-0.245026 8.874195-11.718624 13.79069-23.208202 27.789119-35.209139 41.329456-3.920412 4.426444-3.441014 6.46655 1.155883 9.880931 21.754027 16.139741 36.855073 37.483617 47.375201 62.252526 0.463418 1.081309 0.324925 2.631364 2.455584 3.201315a126.470586 126.470586 0 0 1 18.685879-36.998892c9.209773-12.560234 20.172013-23.165589 33.659084-30.830634 5.102928-2.897696 4.905842-5.108255 2.428951-9.705151-8.975401-16.672406-17.47673-33.600491-26.159165-50.42737-0.101206-0.191759-0.181106-0.383519-0.282312-0.575278-1.960206-3.824533-4.831269-8.256303 0.830957-10.861034 5.582326-2.567444 7.222934 2.578097 9.033994 6.375997 6.32273 13.252698 12.576214 26.53203 18.851005 39.806035 2.178599 4.612877 4.437097 9.19912 6.466549 13.875916 1.171862 2.695284 2.173272 4.048252 5.51308 2.338398 21.759354-11.12204 45.042129-15.218231 69.294355-14.099635 3.888453 0.181106 4.554283-1.241109 4.644836-4.634183 0.431458-15.53783 1.086636-31.07566 1.656588-46.608164 0.03196-0.852264 0.021307-1.704527 0.074573-2.556791 0.202413-3.584834 1.534074-6.445243 5.603633-6.333383 4.501017 0.122513 5.46514 3.323828 5.220114 7.14836-1.022716 16.368787-1.896286 32.742901-3.217295 49.085055-0.292966 3.664733-0.021307 4.959109 4.037599 5.742126 27.107308 5.236094 51.966771 16.043862 74.621001 31.762798 3.398401 2.359705 4.431771 1.03337 6.258811-1.470155 10.418922-14.270088 20.965684-28.449623 31.475159-42.655791 1.262415-1.709854 2.455584-3.494281 3.888452-5.054989 2.322418-2.524831 5.177501-3.195988 7.910071-0.87357 2.492871 2.114679 2.418298 4.980415 0.559298 7.473286-2.929656 3.915086-6.114991 7.649065-9.209773 11.441639-9.540025 11.729277-19.085377 23.447901-28.630729 35.171852-1.582014 1.9389-3.318501 3.259908-0.569951 6.216197 26.878262 28.934348 35.709843 64.452432 36.855072 102.6658 0.138493 4.660816-1.859 10.669275 0.362212 13.641543 2.381011 3.190662 8.586555 0.005327 13.167472 0.463419 24.129712 2.428951 46.112786 8.751681 59.472017 31.517772 10.621335 18.099947 3.206642 44.498811-15.404664 54.310495a15.005165 15.005165 0 0 1-4.682123 1.448848c7.34012-6.130971 12.874506-13.519031 17.311604-21.807294 5.790066-10.818421 4.724736-21.247996-1.539401-31.485812-10.264449-16.768286-26.020672-24.406698-44.781124-27.101981-8.096504-0.79367-16.193008-0.719097-24.300165-0.058593-0.420805 0.010653-0.862917-0.04794-1.267742 0.042613-32.391342 6.738209-41.30815 20.326486-27.623992 55.604871-3.398401-4.058905-5.630266-3.222622-8.496003-0.80965-32.391342 27.267107-69.645913 40.253474-112.088639 37.39839-33.238279-2.237192-62.944991-13.945163-89.104155-34.463408-4.016292-3.148049-5.342627-2.530157-7.782232 1.603321-5.795392 9.785051-13.364558 18.105274-23.064383 24.300165-1.139903 0.229046-1.448848-0.340905-1.262415-1.358295z" fill="#050405" p-id="6792"></path><path d="M1286.198886 790.112245c1.970859-21.109503 8.884848-39.007038 20.92307-54.901754 6.455897-8.522636 13.652197-16.326174 22.968503-21.770007 7.190974-4.197398 14.770793-8.101831 23.431922-5.75278 9.300326 2.524831 15.44195 13.950489 14.243455 25.264289-3.137395 29.504299-16.299541 53.490192-39.582316 71.909738a45.798513 45.798513 0 0 1-20.656739 9.220426c-7.174994 1.294375-12.448375-2.349051-16.28356-7.718312-3.6381-5.092275-4.634183-11.313799-5.044335-16.2516zM732.456614 238.559225c-0.239699 21.08287-9.454799 38.644826-21.8286 54.95502-7.159014 9.433492-15.56979 17.39683-26.468111 22.377245-23.613027 10.786461-33.87215-7.32414-31.709531-25.290921 3.504934-29.110127 17.253011-52.819034 40.903325-70.487523 6.610369-4.937802 14.041042-8.320223 22.355938-7.585146 9.896911 0.87357 15.425971 7.164341 16.693713 17.743062 0.330252 2.721917 0.053266 5.523733 0.053266 8.288263z" fill="#A1B20E" p-id="6793"></path><path d="M1306.701151 630.328806c-21.09885 27.133941-48.887969 43.8969-81.53499 53.724565-25.024589 7.537206-50.182344 14.397928-75.920703 18.936231-4.399811 0.777691-5.555693 2.253172-4.911169 6.509163 1.390255 9.220426 2.359705 18.504773 3.499607 27.762485 0.916183 7.004541 2.226539 14.035716-1.01739 20.837844-1.944226 6.599716-6.237504 8.32555-12.965059 7.622433-12.954406-1.368948-25.951426-0.330252-38.905832 0.846937-6.375997 0.575278-12.704054 0.298292-19.106684-0.335579-5.811372-0.569951-8.13379-3.377094-8.954094-8.693089-1.864327-12.134103-0.639198-24.225592 0.197086-36.322407 0.564625-8.171077 0.628544-8.112484-7.451979-8.048564-8.304243 0.069246-16.61914 0.202413-24.923383-0.074574-3.744633-0.122513-4.68745 1.081309-4.362524 4.67147 1.267742 14.232802 1.512768 28.465603 0.11186 42.735691-0.527338 5.40122-2.599404 8.048564-7.989971 8.613189-22.254732 2.349051-44.205846 0.165126-66.050427-4.053579-2.775183-0.537991-3.755286-2.466238-4.687449-4.671469-3.339808-7.883438-3.70202-16.123761-2.775184-24.475945 0.93749-8.469369 1.853673-16.944065 3.164029-25.354841 0.655178-4.176091-0.218393-5.763432-4.746043-6.589062-33.568531-6.120318-66.465905-14.669587-98.138149-27.650626-21.642168-8.874194-40.764832-21.061563-55.498338-39.52905-0.324925-1.305029 0.239699-1.741814 1.480808-1.518094 27.027408 30.511036 63.728008 42.948757 101.169011 53.687278 46.698717 13.401845 94.441456 21.136136 143.015153 21.258649 73.129541 0.186433 144.027216-12.70938 212.021869-40.216187 21.706088-8.778315 38.160101-24.497251 53.942957-41.068451 1.070656-0.133166 1.683221 0.170453 1.336988 1.395582z" fill="#100B04" p-id="6794"></path><path d="M1388.193528 337.688131c2.333072-19.436936 11.937017-34.569941 28.305804-45.042129 4.096192-2.62071 10.10465-2.84443 14.595013 0.319598 4.927149 3.467647 6.567756 9.241733 5.54504 14.80808-3.169355 17.253011-10.546762 32.17295-25.64248 42.362826-4.996395 3.371768-10.424249 5.853985-16.049188 3.052169-6.035091-3.009556-7.063134-9.124547-6.754189-15.500544zM750.577868 713.765409c-2.913676 20.14538-11.415005 36.615373-30.612242 45.830473-6.807455 3.259908-14.035716-0.165126-16.006575-7.553186-2.226539-8.34153-0.458092-16.304867 2.887043-24.092425 5.182828-12.075509 13.140839-21.929807 24.364085-28.572136 10.722541-6.349364 19.314423-0.777691 19.373016 11.841137l-0.005327 2.546137z" fill="#A2B20E" p-id="6795"></path><path d="M1140.429856 806.694098c-13.028979 11.569478-27.693239 13.83863-43.8969 7.856804-8.767661-3.227948-17.663162-6.072378-26.393537-9.390879-20.283873-7.702332-40.695585-7.558512-61.352324-1.73116-8.378816 2.359705-16.842859 4.442424-25.317554 6.43459-13.796016 3.243928-26.079265 0.495378-36.60472-9.39088-4.804636-4.506344-9.444146-9.1352-13.582951-14.264761 0.410152-0.522011 0.82563-0.553971 1.241109-0.010653 2.135986 2.066739 4.330564 4.085538 6.407957 6.205544 13.513704 13.780037 29.211334 18.616632 48.227464 13.204758 14.893306-4.245338 29.893145-8.384143 45.548161-9.081933 17.42879-0.783017 33.472652 4.873882 49.532493 10.514802 3.803226 1.336988 7.649065 2.562117 11.425659 3.973678 15.527177 5.806046 30.026311 4.112172 43.433481-5.822025 1.193169-0.170453 1.656587 0.319599 1.331662 1.502115z" fill="#1E1402" p-id="6796"></path><path d="M795.220499 635.271935l-1.480808 1.518094c-16.166374-17.354217-29.594852-36.66864-41.057797-57.383971l0.628544-0.564625c10.679928 15.218231 20.539552 31.033047 32.636368 45.228562 3.137395 3.691367 6.178911 7.467959 9.273693 11.20194z" fill="#372E06" p-id="6797"></path><path d="M748.015751 570.132365c-5.944538-0.88955-9.257713 2.647344-11.681337 7.26022-1.342315 2.562117-2.130659 5.422527-3.691367 9.524046-0.271659-9.774398 2.833776-15.958635 10.205856-20.22528 7.750272-4.490364 15.346071-4.772676 24.577151-0.522011-6.594389 0.282312-11.910383-0.948143-17.029292 1.155882-1.480808 0.607238-2.78051 0.932163-2.487544 2.881716l0.106533-0.074573z" fill="#281E07" p-id="6798"></path><path d="M1306.701151 630.328806l-1.342315-1.395582 33.206319-40.823424-0.106533-0.069247c-8.799621 15.431297-19.724575 29.28058-31.757471 42.288253z" fill="#4C4407" p-id="6799"></path><path d="M1338.570482 588.1098c-5.656899-4.746043-12.070183-1.619301-18.419546-1.582015 12.219329-7.526553 31.272746-1.7791 37.377084 11.585458-5.992478-4.868556-10.94626-10.610681-19.058744-10.07269l0.101206 0.069247z" fill="#4C4407" p-id="6800"></path><path d="M902.296763 314.069777c0.01598-3.568854-0.021307-7.143034 0.058593-10.711888 0.069246-3.206642-0.628544-5.992478-4.117498-6.940621-3.648753-0.990756-5.795392 0.958797-7.100421 4.165438-0.996083-5.166848 2.215885-5.534387 6.013785-5.310667 2.998902 0.181106 6.711576-1.04935 6.674289 4.181418-0.0799 12.650787-0.026633 25.301575-1.523421 37.957688l-0.005327-23.341368z" fill="#EDEC7F" p-id="6801"></path><path d="M1140.429856 806.694098l-1.336988-1.496788c7.899418-6.674289 16.113108-13.002346 23.447901-20.358446-6.562429 8.085851-13.210085 16.075821-22.110913 21.855234z" fill="#736F06" p-id="6802"></path><path d="M1146.821833 758.093768c2.146639-6.860722 0.607238-13.902549 1.01739-20.843171l0.447438-4.341218 0.884223 0.01598v22.712824c0 1.560708-0.958797 2.210559-2.349051 2.455585z" fill="#E6E294" p-id="6803"></path><path d="M1324.220494 535.407951c8.107157-2.125332 16.208988-2.178599 24.305492 0.058594-8.107157-0.026633-16.208988-0.042613-24.305492-0.058594z" fill="#D9D59F" p-id="6804"></path><path d="M934.522979 786.202485l-0.617891 0.14382-0.623218-0.133166c-4.053579-2.535484-5.939212-6.828762-8.410776-10.695908 3.920412 2.919003 7.004541 6.594389 9.651885 10.685254z" fill="#ACA90B" p-id="6805"></path><path d="M1022.849444 584.27994a4.767349 4.767349 0 0 1 1.262416-0.069246c2.578097 2.63669 2.631364 6.264137 3.803226 9.481432a16.326174 16.326174 0 0 1-5.065642-9.412186z" fill="#A09D08" p-id="6806"></path><path d="M1053.525606 617.704652l1.267742 1.379602c-1.997493 2.626037-5.124235 3.110762-8.394796 3.616793l7.127054-4.996395z" fill="#807A0B" p-id="6807"></path><path d="M752.676567 579.400731c-2.226539-2.753877-4.580917-5.438507-4.660816-9.268366l-0.106533 0.0799c2.68463 2.322418 4.090865 5.438507 5.395894 8.623842-0.218393 0.186433-0.426132 0.372865-0.628545 0.564624z" fill="#372E06" p-id="6808"></path><path d="M893.955233 364.981872c47.156808 0.463418 86.776411 16.113108 118.672375 49.916011 13.540337 14.344661 21.833927 31.794758 28.971635 49.884052 0.798997 2.029453 0.96945 4.112172 0.399498 6.258811-3.627447 13.80667-3.366441 27.858365-2.279805 41.904734 0.282312 3.6381-0.388845 5.076295-4.202725 6.045745-13.124859 3.318501-22.190813 15.910695-21.658147 29.504299 0.239699 6.189564 1.518094 12.240635 3.185335 18.201154 0.585931 2.109352 0.894877 3.771266-1.012063 5.710165-47.295301 48.136911-114.411057 52.009384-160.156304 35.464818-22.84599-8.26163-40.349353-24.113732-57.575731-40.375986-1.086636-1.022716-1.9389-2.013473-1.821713-3.787247 1.241109-18.675225-8.991381-31.176867-22.680864-41.760914-1.486135-1.150556-3.094782-1.87498-3.361115-4.234685-3.020209-26.65987-4.59157-53.234513 7.53188-78.344328 23.607701-48.909275 61.991521-74.786128 115.987744-74.386629zM1174.23276 624.320348c-27.256454 0.175779-60.271014-12.688074-89.524961-36.114669-2.370358-1.896286-2.135986-3.526241-1.379602-5.965845 2.402318-7.734292 4.010965-15.64969 5.049662-23.692927 3.190662-24.59313-8.863541-39.294677-33.611144-40.855384-11.05812-0.697791-11.095406-0.692464-11.345759-12.07551-1.470155-66.673644 36.327734-113.201908 102.814946-130.83311 33.131746-8.783641 64.841277-2.455584 95.655932 11.462945 25.322881 11.441638 47.103542 26.729116 60.127194 51.950791 13.918529 26.952835 21.471715 55.434418 18.424873 86.153193-0.431458 4.357197-1.379602 7.30816-6.226851 7.766251-1.230456 0.117186-2.423625 0.772364-3.62212 1.214476-23.106996 8.554596-29.632139 20.843171-23.106996 44.663937 1.225129 4.474384 0.255679 6.578409-3.164028 9.417513-28.902388 24.001873-61.778455 37.041505-110.091146 36.908339zM1027.861819 741.10709c0 6.578409-0.207739 13.167472 0.074573 19.735228 0.181106 4.208051-1.640607 5.582326-5.518406 5.710166-18.067988 0.617891-36.119995 1.315682-53.964264-2.620711-0.830957-0.181106-1.661914-0.394172-2.498197-0.522011-11.569478-1.688547-11.77189-1.661914-13.401845-13.353905-1.970859-14.115615 1.885633-27.884999 3.041516-41.824834 0.245026-2.961616 2.237192-2.487544 4.181418-2.157293 20.976337 3.5582 42.1178 5.635593 63.355142 6.658309 3.339808 0.159799 3.76594 1.635281 3.915086 4.186745 0.484725 8.064544 1.044023 16.113108 1.576688 24.172326l-0.761711 0.01598zM1070.469671 735.444863c0-5.944538 0.06392-11.889077-0.021307-17.833615-0.04794-3.536894 0.996083-5.198808 5.076295-5.358607 20.19332-0.79367 40.205534-3.441014 60.111215-6.818108 3.861819-0.655178 5.273381 0.085226 5.582326 4.069558 0.96945 12.490988 2.263825 24.960669 3.345135 37.441004 0.175779 2.104026 0.069246 4.261318-0.19176 6.35469-1.097289 8.858214-2.428951 9.99279-11.159326 9.24706-12.560234-1.070656-25.045896-0.03196-37.520903 1.257089-6.573083 0.681811-13.071592 0.729751-19.681962-0.186433-4.362524-0.601911-5.646246-2.759203-6.130971-6.54645-0.926837-7.21228-0.543318-14.413908 0.591258-21.626188z" fill="#FEFEFE" p-id="6809"></path><path d="M947.099193 439.464381c28.300477-0.085226 50.454003 17.077231 55.088186 40.775485 6.32273 32.300789-18.611306 58.443974-52.637928 54.848487-21.338549-2.253172-36.231855-14.232802-45.276502-33.089133-8.32555-17.370197 0.735077-43.460115 18.078641-54.459642 8.26163-5.236094 17.423463-7.744945 24.747603-8.075197z" fill="#050A14" p-id="6810"></path><path d="M1142.070464 540.138014c-17.791002-0.207739-32.242196-7.052481-42.448053-21.86056-16.059842-23.325388-8.139117-54.85914 17.695123-66.497865 22.712824-10.232489 45.308462-8.480022 63.97836 12.277922 21.189403 23.565088 14.946572 55.583564-13.364558 70.050739-8.112484 4.144132-16.715019 6.237504-25.860872 6.029764z" fill="#040C15" p-id="6811"></path><path d="M953.943935 530.832361c-24.177652 2.231865-49.298121-22.600964-48.270078-43.902226 1.171862-24.236245 16.091801-42.533279 43.502729-43.348256 27.352334-0.80965 50.31551 19.772515 50.145057 44.605344-0.154473 21.498348-14.845366 43.827654-45.377708 42.645138z" fill="#02A0C6" p-id="6812"></path><path d="M1095.094761 494.616487c0.298292-22.760764 12.293902-36.226528 34.324915-42.24564 27.783792-7.579819 52.648582 9.502739 58.70498 30.580282 5.678206 19.767188-3.643427 39.736789-23.059056 49.207568-20.923071 10.205856-46.490977 4.453077-60.958152-13.764057-6.189564-7.787558-9.007361-16.741652-9.012687-23.778153z" fill="#019FC6" p-id="6813"></path><path d="M952.953179 505.323048c-10.413595 0.04794-19.687288-7.771578-19.836435-16.730999-0.165126-10.301736 8.330876-19.330403 18.062661-19.186584 9.289673 0.133166 18.787085 9.715805 18.882965 19.042764 0.090553 9.11922-7.728965 16.832205-17.109191 16.874819z" fill="#020103" p-id="6814"></path><path d="M1142.549862 474.391207c9.630578 0.197086 17.727082 9.438819 17.386177 19.857741-0.330252 9.832991-7.366753 16.976025-16.422054 16.651099-10.418922-0.367539-19.016131-9.369573-18.659245-19.527489 0.346232-9.955504 7.878111-17.183764 17.695122-16.981351z" fill="#050304" p-id="6815"></path></svg>